<svg xmlns="http://www.w3.org/2000/svg" xmlns:xlink="http://www.w3.org/1999/xlink" viewBox="0 0 256.37 41.81"><defs><clipPath id="clip-path"><rect x="230.1" width="26.28" height="41.81" style="fill:none"/></clipPath><linearGradient id="Sfumatura_senza_nome_10" x1="1211.39" y1="1879.05" x2="1211.71" y2="1879.05" gradientTransform="matrix(22.52, 0, 0, -18.42, -27044.45, 34628.88)" gradientUnits="userSpaceOnUse"><stop offset="0" stop-color="#31ecff"/><stop offset="0.05" stop-color="#2de1ff"/><stop offset="0.3" stop-color="#1bb2ff"/><stop offset="0.52" stop-color="#0d8fff"/><stop offset="0.69" stop-color="#057aff"/><stop offset="0.81" stop-color="#0373ff"/></linearGradient><linearGradient id="Sfumatura_senza_nome_2" x1="1252.6" y1="1841.69" x2="1252.49" y2="1841.33" gradientTransform="matrix(58.14, 0, 0, -48.98, -72574.84, 90208.78)" gradientUnits="userSpaceOnUse"><stop offset="0" stop-color="#31ecff"/><stop offset="0.05" stop-color="#2de1ff"/><stop offset="0.29" stop-color="#1bb2ff"/><stop offset="0.51" stop-color="#0d8fff"/><stop offset="0.69" stop-color="#057aff"/><stop offset="0.8" stop-color="#0373ff"/></linearGradient></defs><g id="Livello_2" data-name="Livello 2"><g id="Livello_1-2" data-name="Livello 1"><path d="M47.94,30.32h-8V10.82h2.94V27.39h5.08Z" style="fill:#eee"/><path d="M50,30.32V10.81h8.37v2.95H52.9v5.32h4v3h-4v5.32h5.43v3Z" style="fill:#eee"/><path d="M65,30.57a4.66,4.66,0,0,1-4.67-4.66V15.27A4.66,4.66,0,0,1,65,10.61,4.42,4.42,0,0,1,68.31,12a4.48,4.48,0,0,1,1.36,3.29V17.5h-3V15.21a1.66,1.66,0,0,0-.5-1.2,1.7,1.7,0,0,0-2.39,0,1.69,1.69,0,0,0-.49,1.2V25.88a1.69,1.69,0,0,0,2.88,1.19,1.59,1.59,0,0,0,.5-1.18V22.06H65v-3h4.68v6.81a4.47,4.47,0,0,1-1.37,3.3A4.52,4.52,0,0,1,65,30.57Z" style="fill:#eee"/><path d="M75.16,22.06v8.26H72.22V10.82h2.94V19.1h3.55V10.82h2.94v19.5H78.71V22.06Z" style="fill:#eee"/><path d="M84.28,30.32V10.81h8.37v2.95H87.22v5.32h4v3h-4v5.32h5.43v3Z" style="fill:#eee"/><path d="M101.63,30.32H98.69V10.81h8.37v2.95h-5.43v5.32h4v3h-4Z" style="fill:#fff"/><path d="M110.4,25.84l-.71,4.48h-3.07l3.32-19.5h4l3.27,19.5h-3.09l-.69-4.48Zm1.54-10.55L110.86,23H113Z" style="fill:#fff"/><path d="M123,10.81l3.91,13.11V10.81h2.94V30.32h-3.16l-4-12.5v12.5h-2.94V10.81Z" style="fill:#fff"/><path d="M135.36,13.78h-3.13v-3h9.18v3H138.3V30.32h-2.94Z" style="fill:#fff"/><path d="M144.87,25.84l-.71,4.48H141.1l3.31-19.5h4.05l3.26,19.5h-3.09l-.69-4.48Zm1.55-10.55L145.33,23h2.18Z" style="fill:#fff"/><path d="M158.41,30.57a4.68,4.68,0,0,1-4.67-4.66V15.27a4.66,4.66,0,0,1,4.67-4.66,4.43,4.43,0,0,1,3.3,1.37,4.51,4.51,0,0,1,1.35,3.29V17.5H160V15.21a1.67,1.67,0,0,0-1.69-1.69,1.61,1.61,0,0,0-1.19.49,1.65,1.65,0,0,0-.49,1.2V25.88a1.67,1.67,0,0,0,1.68,1.68,1.65,1.65,0,0,0,1.2-.49,1.59,1.59,0,0,0,.49-1.19V23.19h3.05v2.72a4.43,4.43,0,0,1-1.37,3.3A4.5,4.5,0,0,1,158.41,30.57Z" style="fill:#fff"/><path d="M168.52,25.84l-.72,4.48h-3.06l3.32-19.5h4l3.27,19.5h-3.09l-.69-4.48Zm1.54-10.55L169,23h2.18Z" style="fill:#fff"/><path d="M185.85,30.32h-8V10.82h2.94V27.39h5.07Z" style="fill:#fff"/><path d="M192.54,30.57a4.66,4.66,0,0,1-4.66-4.66V15.27a4.64,4.64,0,0,1,4.66-4.66,4.43,4.43,0,0,1,3.3,1.37,4.51,4.51,0,0,1,1.35,3.29V17.5h-3V15.21a1.66,1.66,0,0,0-.5-1.2,1.63,1.63,0,0,0-1.2-.49,1.61,1.61,0,0,0-1.19.49,1.65,1.65,0,0,0-.49,1.2V25.88a1.67,1.67,0,0,0,1.68,1.68,1.63,1.63,0,0,0,1.2-.49,1.6,1.6,0,0,0,.5-1.19V23.19h3v2.72a4.46,4.46,0,0,1-1.36,3.3A4.54,4.54,0,0,1,192.54,30.57Z" style="fill:#fff"/><path d="M202.55,30.32h-2.94V10.82h2.94Z" style="fill:#fff"/><path d="M209.8,10.58a4.64,4.64,0,0,1,4.66,4.66V25.88a4.66,4.66,0,1,1-9.32,0V15.24a4.66,4.66,0,0,1,4.66-4.66Zm1.6,4.6a1.65,1.65,0,0,0-.49-1.19A1.7,1.7,0,0,0,208,15.18V25.85a1.6,1.6,0,0,0,.5,1.19,1.69,1.69,0,0,0,2.88-1.19Z" style="fill:#fff"/><path id="Tracciato_2945" data-name="Tracciato 2945" d="M12.22,1.86A11.63,11.63,0,0,0,6.68,3.2C-.55,7.11-2.19,18.18,3.13,28,7.18,35.42,14,40,20.23,40a11.63,11.63,0,0,0,5.54-1.35c4.19-2.27,6.46-6.88,6.67-12.2,0-.78-.28-1.49-1.14-1.56h-.07c-.78,0-1.2.78-1.34,1.28a8.72,8.72,0,0,1-4.12,5.31,7.52,7.52,0,0,1-3.48.85c-4.11,0-8.51-3.33-11.28-8.58C7.4,17,7.75,9.8,12.71,7.11a8.5,8.5,0,0,1,4-1,7.65,7.65,0,0,1,5.11,2A1.87,1.87,0,0,0,23,8.59c.78,0,1.35-.63.57-1.41A15.82,15.82,0,0,0,12.21,1.85" style="fill:#fff"/><path id="Tracciato_2946" data-name="Tracciato 2946" d="M30.66,10.8H15.83a2.46,2.46,0,0,0-2.27,1.56l-2.69,7.31a1.75,1.75,0,0,0,0,.85,20.41,20.41,0,0,0,1.2,2.55,21.46,21.46,0,0,0,2.35,3.48.58.58,0,0,0,.82.05.56.56,0,0,0,.17-.26l.78-2.2a1.16,1.16,0,0,1,1.06-.64h6.53a1.83,1.83,0,0,0,1.7-1.21l.78-2.06a1.2,1.2,0,0,0-.72-1.55,1.15,1.15,0,0,0-.41-.08H19.52a.9.9,0,0,1-.9-.9,1,1,0,0,1,.05-.3l.22-.5a1.36,1.36,0,0,1,1.2-.85h9a1.85,1.85,0,0,0,1.71-1.21l.92-2.55a1.09,1.09,0,0,0-1.07-1.49" style="fill:#fff"/><path d="M221.1,6.7A4.11,4.11,0,1,1,217,10.79,4.09,4.09,0,0,1,221.1,6.7Zm0,7.61a3.38,3.38,0,0,0,3.37-3.52,3.38,3.38,0,1,0-6.76,0A3.39,3.39,0,0,0,221.1,14.31ZM219.5,8.4h1.85c1.15,0,1.68.45,1.68,1.38a1.22,1.22,0,0,1-1.26,1.3l1.37,2.12h-.8L221,11.14h-.79V13.2h-.75Zm.75,2.13H221c.65,0,1.26,0,1.26-.79S221.74,9,221.23,9h-1Z" style="fill:#fff"/><g style="clip-path:url(#clip-path)"><g id="Gruppo_di_maschere_33" data-name="Gruppo di maschere 33"><g id="Raggruppa_7755" data-name="Raggruppa 7755"><rect id="Rettangolo_4742" data-name="Rettangolo 4742" x="230.1" width="26.27" height="33.09" style="fill:#fff"/><rect id="Rettangolo_4743" data-name="Rettangolo 4743" x="230.1" y="33.09" width="26.27" height="8.72" style="fill:#0032a0"/><g id="Raggruppa_7749" data-name="Raggruppa 7749"><path id="Tracciato_3652" data-name="Tracciato 3652" d="M251.44,37a.08.08,0,0,0,0,0l-.6,1.51-.18.44a.16.16,0,0,1-.15.12h-.78a.18.18,0,0,1-.17-.13l-.72-1.71c0-.08-.07-.17-.11-.26v2.74c0,.11,0,.14-.13.14s-.44,0-.66,0h-.23c-.11,0-.12,0-.12-.14V35.12c0-.09,0-.12.11-.13h.93a.67.67,0,0,1,.24,0,.18.18,0,0,1,.1.09c.26.6.51,1.2.76,1.8.15.36.28.72.42,1.08,0,0,0,0,0,0l.57-1.46.57-1.36a.19.19,0,0,1,.18-.14h.87l.18,0a.08.08,0,0,1,.08.1v4.67c0,.1,0,.13-.12.14h-.91c-.09,0-.11,0-.11-.13V37Z" style="fill:#c8102e"/><path id="Tracciato_3653" data-name="Tracciato 3653" d="M242.36,36.05h-1.11c-.08,0-.1,0-.12-.1a.76.76,0,0,1,0-.15v-.62a.45.45,0,0,1,0-.11c0-.08,0-.09.1-.09h3.39c.08,0,.1,0,.11.09a1.93,1.93,0,0,1,0,.24c0,.2,0,.41,0,.61s0,.13-.14.13H243.5v3.72c0,.11,0,.14-.13.15h-.91c-.08,0-.1,0-.1-.11V36.05Z" style="fill:#00b74f"/><path id="Tracciato_3654" data-name="Tracciato 3654" d="M245.5,37.45V35.13c0-.11,0-.13.12-.14h.94a.11.11,0,0,1,.08.11v4.66c0,.11,0,.14-.13.15h-.91c-.08,0-.1,0-.1-.12V37.45Z" style="fill:#fff"/><g id="Raggruppa_7748" data-name="Raggruppa 7748"><path id="Tracciato_3655" data-name="Tracciato 3655" d="M236.84,35h2.67a.29.29,0,0,1,.29.27v.53a.27.27,0,0,1-.24.25l-.2,0h-5.15a.32.32,0,0,1-.31-.16.27.27,0,0,1,0-.12v-.52a.28.28,0,0,1,.28-.27Z" style="fill:#e4002b"/><path id="Tracciato_3656" data-name="Tracciato 3656" d="M237.43,36.93h2.07a.28.28,0,0,1,.29.21.28.28,0,0,1,0,.09v.5a.26.26,0,0,1-.26.26h-2.11v-1Z" style="fill:#e4002b"/><path id="Tracciato_3657" data-name="Tracciato 3657" d="M237.43,39.93V38.87h2.06a.28.28,0,0,1,.3.2.28.28,0,0,1,0,.09v.51a.28.28,0,0,1-.26.26h-2.11Z" style="fill:#e4002b"/><path id="Tracciato_3658" data-name="Tracciato 3658" d="M236.25,38.88v1h-2.1a.28.28,0,0,1-.28-.27h0v-.51a.28.28,0,0,1,.26-.27h2.12Z" style="fill:#e4002b"/><path id="Tracciato_3659" data-name="Tracciato 3659" d="M236.24,38h-2.07a.28.28,0,0,1-.3-.29h0c0-.17,0-.33,0-.5a.27.27,0,0,1,.26-.26h2.11v1Z" style="fill:#e4002b"/></g></g><g id="Raggruppa_7750" data-name="Raggruppa 7750"><path id="Tracciato_3660" data-name="Tracciato 3660" d="M233.73,30.75a.08.08,0,0,1,0-.1l.43-.49a.06.06,0,0,1,.08,0h0a1.6,1.6,0,0,0,1,.39c.4,0,.63-.18.63-.45s-.14-.37-.59-.43l-.21,0c-.78-.11-1.21-.48-1.21-1.15a1.2,1.2,0,0,1,1.36-1.18,2.15,2.15,0,0,1,1.3.4s0,.05,0,.09l-.34.51a.05.05,0,0,1-.08,0h0a1.5,1.5,0,0,0-.89-.29c-.34,0-.52.17-.52.42s.16.36.6.42l.21,0c.79.1,1.2.47,1.2,1.16s-.51,1.21-1.5,1.21A2.28,2.28,0,0,1,233.73,30.75Z" style="fill:#1a1659"/><path id="Tracciato_3661" data-name="Tracciato 3661" d="M237.16,27.43a0,0,0,0,1,.05-.05h2.47s0,0,.06.05h0V28a0,0,0,0,1-.05.05H238s0,0,0,0h0v.76a0,0,0,0,0,0,0h1.38a.06.06,0,0,1,.06,0h0v.6a0,0,0,0,1-.05.05H238s0,0,0,0h0v.79s0,0,0,0h1.66a.06.06,0,0,1,.06.05h0v.61a0,0,0,0,1-.05.05h-2.47a.05.05,0,0,1-.06-.05h0Z" style="fill:#1a1659"/><path id="Tracciato_3662" data-name="Tracciato 3662" d="M242.36,31.21a.07.07,0,0,1-.08-.05l-.66-1.41h-.52a0,0,0,0,0,0,0h0v1.38a0,0,0,0,1,0,.05h-.73a0,0,0,0,1,0-.05h0V27.43a0,0,0,0,1,0-.05h1.53a1.19,1.19,0,0,1,1.31,1.19,1.13,1.13,0,0,1-.68,1.06l.75,1.52a0,0,0,0,1,0,.06h-.83Zm-.06-2.64a.46.46,0,0,0-.46-.48h-.74a0,0,0,0,0,0,0h0V29s0,0,0,0h.68a.48.48,0,0,0,.52-.42v-.06Z" style="fill:#1a1659"/><path id="Tracciato_3663" data-name="Tracciato 3663" d="M243.65,27.43a0,0,0,0,1,0-.05h.72a.05.05,0,0,1,.06.05h0v3.73a0,0,0,0,1,0,.05h-.72a.05.05,0,0,1-.06-.05h0Z" style="fill:#1a1659"/><path id="Tracciato_3664" data-name="Tracciato 3664" d="M245.1,27.43a0,0,0,0,1,.05-.05h2.47s0,0,0,.05h0V28s0,.05,0,.05H246a0,0,0,0,0,0,0h0v.76s0,0,0,0h1.39a.06.06,0,0,1,.06,0h0v.6a0,0,0,0,1-.05.05H246a0,0,0,0,0,0,0h0v.79a.05.05,0,0,0,0,0h1.67a0,0,0,0,1,0,.05h0v.61s0,.05,0,.05h-2.46a.05.05,0,0,1-.06-.05h0Z" style="fill:#1a1659"/><path id="Tracciato_3665" data-name="Tracciato 3665" d="M250.43,27.43s0-.06.07-.05h.71a.07.07,0,0,1,.08.05l1.29,3.73s0,.05,0,.05h-.74a.06.06,0,0,1-.07-.05l-.22-.67h-1.35l-.21.67s0,.06-.07.05h-.74s-.06,0,0-.05Zm.86,2.35-.43-1.34h0l-.43,1.34Z" style="fill:#1a1659"/></g><g id="Raggruppa_7754" data-name="Raggruppa 7754"><g id="Raggruppa_7753" data-name="Raggruppa 7753"><g id="Raggruppa_7752" data-name="Raggruppa 7752"><g id="Raggruppa_7751" data-name="Raggruppa 7751"><path id="Tracciato_3666" data-name="Tracciato 3666" d="M243.23,25.43l-9.36-5.93h5.73Z" style="fill:#1a1659"/><path id="Tracciato_3667" data-name="Tracciato 3667" d="M243.23,25.43l9.36-5.93h-5.74Z" style="fill:#1a1659"/><path id="Tracciato_3668" data-name="Tracciato 3668" d="M243.23,9.93,239.6,19.5h7.25Z" style="fill:#1a1659"/><path id="Tracciato_3669" data-name="Tracciato 3669" d="M239.6,19.5l3.63,5.93,3.62-5.93Z" style="fill:url(#Sfumatura_senza_nome_10)"/></g></g></g><path id="Tracciato_3670" data-name="Tracciato 3670" d="M243.23,9.93l1.56,4.14h-2l-1.34,3.55h4.67l.71,1.88h5.74L245.81,3.73h-5.17L233.87,19.5h5.73Z" style="fill:url(#Sfumatura_senza_nome_2)"/></g></g></g></g></g></g></svg>